<svg width="141" height="141" viewBox="0 0 141 141" fill="none" xmlns="http://www.w3.org/2000/svg">
<rect width="141" height="141" fill="#F5F5F5"/>
<rect width="141" height="141" rx="15" fill="#3333CC"/>
<path d="M11.0227 80V56.7273H26.7045V60.7841H15.9432V66.3295H25.8977V70.3864H15.9432V75.9432H26.75V80H11.0227ZM34.571 62.5455L37.7756 68.6477L41.0597 62.5455H46.0256L40.9688 71.2727L46.1619 80H41.2188L37.7756 73.9659L34.3892 80H29.3892L34.571 71.2727L29.571 62.5455H34.571ZM53.7841 80.3295C52.6705 80.3295 51.678 80.1364 50.8068 79.75C49.9356 79.3561 49.2462 78.7765 48.7386 78.0114C48.2386 77.2386 47.9886 76.2765 47.9886 75.125C47.9886 74.1553 48.1667 73.3409 48.5227 72.6818C48.8788 72.0227 49.3636 71.4924 49.9773 71.0909C50.5909 70.6894 51.2879 70.3864 52.0682 70.1818C52.8561 69.9773 53.6818 69.8333 54.5455 69.75C55.5606 69.6439 56.3788 69.5455 57 69.4545C57.6212 69.3561 58.072 69.2121 58.3523 69.0227C58.6326 68.8333 58.7727 68.553 58.7727 68.1818V68.1136C58.7727 67.3939 58.5455 66.8371 58.0909 66.4432C57.6439 66.0492 57.0076 65.8523 56.1818 65.8523C55.3106 65.8523 54.6174 66.0455 54.1023 66.4318C53.5871 66.8106 53.2462 67.2879 53.0795 67.8636L48.6023 67.5C48.8295 66.4394 49.2765 65.5227 49.9432 64.75C50.6098 63.9697 51.4697 63.3712 52.5227 62.9545C53.5833 62.5303 54.8106 62.3182 56.2045 62.3182C57.1742 62.3182 58.1023 62.4318 58.9886 62.6591C59.8826 62.8864 60.6742 63.2386 61.3636 63.7159C62.0606 64.1932 62.6098 64.8068 63.0114 65.5568C63.4129 66.2992 63.6136 67.1894 63.6136 68.2273V80H59.0227V77.5795H58.8864C58.6061 78.125 58.2311 78.6061 57.7614 79.0227C57.2917 79.4318 56.7273 79.7538 56.0682 79.9886C55.4091 80.2159 54.6477 80.3295 53.7841 80.3295ZM55.1705 76.9886C55.8826 76.9886 56.5114 76.8485 57.0568 76.5682C57.6023 76.2803 58.0303 75.8939 58.3409 75.4091C58.6515 74.9242 58.8068 74.375 58.8068 73.7614V71.9091C58.6553 72.0076 58.447 72.0985 58.1818 72.1818C57.9242 72.2576 57.6326 72.3295 57.3068 72.3977C56.9811 72.4583 56.6553 72.5152 56.3295 72.5682C56.0038 72.6136 55.7083 72.6553 55.4432 72.6932C54.875 72.7765 54.3788 72.9091 53.9545 73.0909C53.5303 73.2727 53.2008 73.5189 52.9659 73.8295C52.7311 74.1326 52.6136 74.5114 52.6136 74.9659C52.6136 75.625 52.8523 76.1288 53.3295 76.4773C53.8144 76.8182 54.428 76.9886 55.1705 76.9886ZM67.3693 80V62.5455H71.983V65.625H72.1875C72.5511 64.6023 73.1572 63.7955 74.0057 63.2045C74.8542 62.6136 75.8693 62.3182 77.0511 62.3182C78.2481 62.3182 79.267 62.6174 80.108 63.2159C80.9489 63.8068 81.5095 64.6098 81.7898 65.625H81.9716C82.3277 64.625 82.9716 63.8258 83.9034 63.2273C84.8428 62.6212 85.9527 62.3182 87.233 62.3182C88.8617 62.3182 90.1837 62.8371 91.1989 63.875C92.2216 64.9053 92.733 66.3674 92.733 68.2614V80H87.9034V69.2159C87.9034 68.2462 87.6458 67.5189 87.1307 67.0341C86.6155 66.5492 85.9716 66.3068 85.1989 66.3068C84.3201 66.3068 83.6345 66.5871 83.142 67.1477C82.6496 67.7008 82.4034 68.4318 82.4034 69.3409V80H77.7102V69.1136C77.7102 68.2576 77.464 67.5758 76.9716 67.0682C76.4867 66.5606 75.8466 66.3068 75.0511 66.3068C74.5133 66.3068 74.0284 66.4432 73.5966 66.7159C73.1723 66.9811 72.8352 67.3561 72.5852 67.8409C72.3352 68.3182 72.2102 68.8788 72.2102 69.5227V80H67.3693ZM98.9205 86.5455C98.3068 86.5455 97.7311 86.4962 97.1932 86.3977C96.6629 86.3068 96.2235 86.1894 95.875 86.0455L96.9659 82.4318C97.5341 82.6061 98.0455 82.7008 98.5 82.7159C98.9621 82.7311 99.3598 82.625 99.6932 82.3977C100.034 82.1705 100.311 81.7841 100.523 81.2386L100.807 80.5L94.5455 62.5455H99.6364L103.25 75.3636H103.432L107.08 62.5455H112.205L105.42 81.8864C105.095 82.8258 104.652 83.6439 104.091 84.3409C103.538 85.0455 102.837 85.5871 101.989 85.9659C101.14 86.3523 100.117 86.5455 98.9205 86.5455ZM129.205 67.5227L124.773 67.7955C124.697 67.4167 124.534 67.0758 124.284 66.7727C124.034 66.4621 123.705 66.2159 123.295 66.0341C122.894 65.8447 122.413 65.75 121.852 65.75C121.102 65.75 120.47 65.9091 119.955 66.2273C119.439 66.5379 119.182 66.9545 119.182 67.4773C119.182 67.8939 119.348 68.2462 119.682 68.5341C120.015 68.822 120.587 69.053 121.398 69.2273L124.557 69.8636C126.254 70.2121 127.519 70.7727 128.352 71.5455C129.186 72.3182 129.602 73.3333 129.602 74.5909C129.602 75.7348 129.265 76.7386 128.591 77.6023C127.924 78.4659 127.008 79.1402 125.841 79.625C124.682 80.1023 123.345 80.3409 121.83 80.3409C119.519 80.3409 117.678 79.8598 116.307 78.8977C114.943 77.928 114.144 76.6098 113.909 74.9432L118.67 74.6932C118.814 75.3977 119.163 75.9356 119.716 76.3068C120.269 76.6705 120.977 76.8523 121.841 76.8523C122.689 76.8523 123.371 76.6894 123.886 76.3636C124.409 76.0303 124.674 75.6023 124.682 75.0795C124.674 74.6402 124.489 74.2803 124.125 74C123.761 73.7121 123.201 73.4924 122.443 73.3409L119.42 72.7386C117.716 72.3977 116.447 71.8068 115.614 70.9659C114.788 70.125 114.375 69.053 114.375 67.75C114.375 66.6288 114.678 65.6629 115.284 64.8523C115.898 64.0417 116.758 63.4167 117.864 62.9773C118.977 62.5379 120.28 62.3182 121.773 62.3182C123.977 62.3182 125.712 62.7841 126.977 63.7159C128.25 64.6477 128.992 65.9167 129.205 67.5227Z" fill="#EEEEEE"/>
</svg>
